<svg width="127" height="127" viewBox="0 0 127 127" fill="none" xmlns="http://www.w3.org/2000/svg">
<circle cx="63.5" cy="63.5" r="63.5" fill="#1873CD"/>
<path d="M49.4168 57.75V82.75H41.0835V57.75H49.4168ZM57.7502 82.75C56.6451 82.75 55.5853 82.311 54.8039 81.5296C54.0225 80.7482 53.5835 79.6884 53.5835 78.5833V57.75C53.5835 56.6041 54.0418 55.5625 54.8127 54.8125L68.521 41.0833L70.7293 43.2916C71.2918 43.8541 71.646 44.625 71.646 45.4791L71.5835 46.1458L69.6043 55.6666H82.7502C83.8552 55.6666 84.915 56.1056 85.6964 56.887C86.4778 57.6684 86.9168 58.7282 86.9168 59.8333V64C86.9168 64.5416 86.8127 65.0416 86.6252 65.5208L80.3335 80.2083C79.7085 81.7083 78.2293 82.75 76.5002 82.75H57.7502ZM57.7502 78.5833H76.5627L82.7502 64V59.8333H64.4377L66.7918 48.75L57.7502 57.8125V78.5833Z" fill="white"/>
</svg>
