<svg width="127" height="127" viewBox="0 0 127 127" fill="none" xmlns="http://www.w3.org/2000/svg">
<circle cx="63.5" cy="63.5" r="63.5" fill="#1873CD"/>
<g clip-path="url(#clip0_2_102)">
<path fill-rule="evenodd" clip-rule="evenodd" d="M69.4041 45.0354C67.8963 43.7505 65.98 43.0447 63.9989 43.0447C62.0178 43.0447 60.1015 43.7505 58.5937 45.0354L57.8104 45.7021C57.1432 46.2712 56.3136 46.6153 55.4395 46.6854L54.4124 46.7688C52.4374 46.9259 50.5829 47.7817 49.1817 49.1825C47.7806 50.5833 46.9243 52.4375 46.7666 54.4125L46.6854 55.4396C46.6158 56.3134 46.2724 57.1431 45.7041 57.8104L45.0354 58.5938C43.7498 60.1017 43.0437 62.0185 43.0437 64C43.0437 65.9816 43.7498 67.8983 45.0354 69.4063L45.702 70.1896C46.2711 70.8567 46.6152 71.6864 46.6854 72.5604L46.7687 73.5875C46.9259 75.5626 47.7816 77.417 49.1824 78.8182C50.5832 80.2194 52.4374 81.0756 54.4124 81.2334L55.4395 81.3146C56.3133 81.3842 57.143 81.7275 57.8104 82.2959L58.5937 82.9625C60.1017 84.2481 62.0184 84.9542 63.9999 84.9542C65.9815 84.9542 67.8982 84.2481 69.4062 82.9625L70.1895 82.2959C70.8569 81.7275 71.6865 81.3842 72.5604 81.3146L73.5874 81.2313C75.5625 81.0741 77.4169 80.2184 78.8181 78.8176C80.2193 77.4168 81.0756 75.5625 81.2333 73.5875L81.3124 72.5604C81.3826 71.6864 81.7267 70.8567 82.2958 70.1896L82.9624 69.4042C84.2474 67.8964 84.9532 65.9801 84.9532 63.999C84.9532 62.0179 84.2474 60.1016 82.9624 58.5938L82.2958 57.8104C81.7267 57.1433 81.3826 56.3137 81.3124 55.4396L81.2312 54.4125C81.074 52.4375 80.2183 50.583 78.8175 49.1818C77.4167 47.7806 75.5625 46.9244 73.5874 46.7667L72.5604 46.6854C71.6865 46.6159 70.8569 46.2725 70.1895 45.7042L69.4041 45.0354ZM61.2979 48.2084C62.0517 47.5661 63.0096 47.2134 63.9999 47.2134C64.9902 47.2134 65.9482 47.5661 66.702 48.2084L67.4874 48.8771C68.8219 50.0145 70.4812 50.702 72.2291 50.8417L73.2562 50.925C74.2432 51.0041 75.1698 51.432 75.8699 52.1321C76.5701 52.8323 76.998 53.7589 77.077 54.7459L77.1604 55.7729C77.3 57.5208 77.9875 59.1801 79.1249 60.5146L79.7916 61.3C80.4338 62.0539 80.7865 63.0118 80.7865 64.0021C80.7865 64.9924 80.4338 65.9504 79.7916 66.7042L79.1249 67.4896C77.9875 68.8241 77.3 70.4834 77.1604 72.2313L77.077 73.2584C76.998 74.2454 76.5701 75.1719 75.8699 75.8721C75.1698 76.5722 74.2432 77.0002 73.2562 77.0792L72.2291 77.1625C70.4812 77.3022 68.8219 77.9897 67.4874 79.1271L66.702 79.7938C65.9482 80.436 64.9902 80.7887 63.9999 80.7887C63.0096 80.7887 62.0517 80.436 61.2979 79.7938L60.5124 79.1271C59.1779 77.9897 57.5187 77.3022 55.7708 77.1625L54.7437 77.0792C53.7563 77.0006 52.8292 76.5729 52.1287 75.8727C51.4281 75.1725 50.9999 74.2457 50.9208 73.2584L50.8374 72.2313C50.6983 70.4836 50.0116 68.8244 48.8749 67.4896L48.2083 66.7042C47.5661 65.9504 47.2133 64.9924 47.2133 64.0021C47.2133 63.0118 47.5661 62.0539 48.2083 61.3L48.8749 60.5146C50.0123 59.1801 50.6998 57.5208 50.8395 55.7729L50.9229 54.7459C51.0014 53.7585 51.4291 52.8314 52.1293 52.1308C52.8295 51.4303 53.7564 51.002 54.7437 50.9229L55.7708 50.8417C57.5187 50.702 59.1779 50.0145 60.5124 48.8771L61.2979 48.2084ZM71.7229 59.225C71.9218 59.0328 72.0805 58.803 72.1897 58.5488C72.2989 58.2946 72.3564 58.0212 72.3588 57.7446C72.3612 57.468 72.3085 57.1937 72.2037 56.9376C72.099 56.6816 71.9443 56.449 71.7487 56.2534C71.5531 56.0578 71.3205 55.9031 71.0644 55.7983C70.8084 55.6936 70.5341 55.6409 70.2574 55.6433C69.9808 55.6457 69.7074 55.7031 69.4533 55.8123C69.1991 55.9215 68.9692 56.0802 68.777 56.2792L56.277 68.7792C56.078 68.9714 55.9193 69.2013 55.8101 69.4554C55.701 69.7096 55.6435 69.983 55.6411 70.2596C55.6387 70.5362 55.6914 70.8106 55.7961 71.0666C55.9009 71.3226 56.0556 71.5552 56.2512 71.7508C56.4468 71.9465 56.6794 72.1012 56.9354 72.2059C57.1915 72.3107 57.4658 72.3634 57.7424 72.361C58.0191 72.3586 58.2924 72.3011 58.5466 72.1919C58.8008 72.0827 59.0307 71.924 59.2229 71.725L71.7229 59.225ZM61.9166 58.7917C61.9166 59.6205 61.5874 60.4153 61.0013 61.0014C60.4153 61.5875 59.6204 61.9167 58.7916 61.9167C57.9628 61.9167 57.1679 61.5875 56.5819 61.0014C55.9958 60.4153 55.6666 59.6205 55.6666 58.7917C55.6666 57.9629 55.9958 57.168 56.5819 56.582C57.1679 55.9959 57.9628 55.6667 58.7916 55.6667C59.6204 55.6667 60.4153 55.9959 61.0013 56.582C61.5874 57.168 61.9166 57.9629 61.9166 58.7917ZM69.2083 72.3334C70.0371 72.3334 70.8319 72.0041 71.418 71.4181C72.004 70.832 72.3333 70.0372 72.3333 69.2084C72.3333 68.3796 72.004 67.5847 71.418 66.9986C70.8319 66.4126 70.0371 66.0834 69.2083 66.0834C68.3795 66.0834 67.5846 66.4126 66.9986 66.9986C66.4125 67.5847 66.0833 68.3796 66.0833 69.2084C66.0833 70.0372 66.4125 70.832 66.9986 71.4181C67.5846 72.0041 68.3795 72.3334 69.2083 72.3334Z" fill="white"/>
</g>
<defs>
<clipPath id="clip0_2_102">
<rect width="50" height="50" fill="white" transform="translate(39 39)"/>
</clipPath>
</defs>
</svg>
